<?xml version="1.0" encoding="UTF-8" standalone="no"?>
<svg
   width="32"
   height="32"
   viewBox="0 0 32 32"
   version="1.1"
   xml:space="preserve"
   style="clip-rule:evenodd;fill-rule:evenodd;stroke-linecap:square;stroke-miterlimit:1.5"
   id="svg877"
   sodipodi:docname="favicon.svg"
   inkscape:version="1.2.2 (b0a8486541, 2022-12-01)"
   inkscape:export-filename="favicon.png"
   inkscape:export-xdpi="96"
   inkscape:export-ydpi="96"
   xmlns:inkscape="http://www.inkscape.org/namespaces/inkscape"
   xmlns:sodipodi="http://sodipodi.sourceforge.net/DTD/sodipodi-0.dtd"
   xmlns="http://www.w3.org/2000/svg"
   xmlns:svg="http://www.w3.org/2000/svg"><defs
   id="defs881">
        
    
            
            
        
                
                
                
                
                
                
                
                
                
            
                        
                        
                    
                        
                    
                        
                    
                        
                    
                        
                    
                        
                    
                        
                    
                        
                    
                        
                    
                        
                    
                        
                    
                        
                    
                        
                    
                        
                    
                        
                    
                        
                    
                        
                    
                        
                    
                        
                    
                        
                    
                        
                    
                        
                    
                        
                    
                        
                    
                        
                    
                        
                    
                        
                    
                        
                    
                        
                    
                        
                    
                        
                    
                        
                    
                        
                    
                        
                    
                        
                    
                        
                    
                        
                    
                        
                    
                        
                    
                        
                    
                        
                    
                        
                    
                        
                    
                        
                    
                        
                    
                        
                    
                        
                    
                        
                    
                        
                    
                        
                    
                        
                    
                        
                    
                        
                    
                        
                    
                        
                    
                        
                    
                        
                    
                        
                    
                        
                    
                        
                    
                        
                    
                        
                    
                        
                    
                        
                    
                        
                    
                        
                    
                        
                    
                        
                    
                        
                    
                        
                    
                        
                    
                        
                    
                        
                    
                        
                    
                        
                    
                        
                    
                        
                    
                        
                    
                        
                    
                        
                    
                        
                    
                        
                    
                        
                    
                        
                    
                        
                    
                        
                    
                        
                    
                        
                    
                        
                    
                        
                    
                        
                    
                        
                    
                        
                    
                        
                    
                        
                    
                        
                    
                        
                    
                        
                    
                        
                    
                        
                    
                        
                    
                            
                        
                            
                        
                            
                        
                            
                        
                            
                        
                            
                        
                            
                        
                            
                        
                            
                        
                            
                        
                            
                        
                            
                        
                            
                        
                            
                        
                            
                        
                            
                        
                            
                        
                            
                        
                            
                        
                            
                        
                                
                            
                                
                            
                                
                            
                                
                            
                                
                            
                                
                            
                                
                            
                                
                            
                                
                            
                                
                            
                                
                            
                                
                            
                                
                            
                                
                            
                                
                            
                                
                            
                                
                            
                                
                            
                                
                            
                                
                            
                        
                    
                        
                        
                    </defs><sodipodi:namedview
   id="namedview879"
   pagecolor="#ffffff"
   bordercolor="#666666"
   borderopacity="1.0"
   inkscape:showpageshadow="2"
   inkscape:pageopacity="0.0"
   inkscape:pagecheckerboard="0"
   inkscape:deskcolor="#d1d1d1"
   showgrid="false"
   inkscape:zoom="16.914082"
   inkscape:cx="17.027232"
   inkscape:cy="13.479892"
   inkscape:window-width="2560"
   inkscape:window-height="1371"
   inkscape:window-x="0"
   inkscape:window-y="0"
   inkscape:window-maximized="1"
   inkscape:current-layer="main_paths"
   showguides="true"><sodipodi:guide
     position="114.13032,-274.52928"
     orientation="0,-1"
     id="guide4649"
     inkscape:locked="false" /><sodipodi:guide
     position="286.24227,-47.7432"
     orientation="0,-1"
     id="guide4651"
     inkscape:locked="false" /><sodipodi:guide
     position="113.49166,333.43986"
     orientation="1,0"
     id="guide4653"
     inkscape:locked="false" /><sodipodi:guide
     position="389.48855,-350.16052"
     orientation="1,0"
     id="guide4655"
     inkscape:locked="false" /><sodipodi:guide
     position="389.48855,-350.16052"
     orientation="0,-1"
     id="guide4657"
     inkscape:locked="false" /><sodipodi:guide
     position="286.24227,-47.7432"
     orientation="1,0"
     id="guide4659"
     inkscape:locked="false" /><sodipodi:guide
     position="0,0"
     orientation="-0.70710678,0.70710678"
     id="guide5879"
     inkscape:locked="false"
     inkscape:label=""
     inkscape:color="rgb(0,134,229)" /></sodipodi:namedview>
    <g
   id="g395"
   transform="matrix(0.01848481,0,0,0.01848491,-7.1988653,-15.272438)"
   inkscape:label="background"
   inkscape:groupmode="layer">
                    <circle
   cx="1255.0184"
   cy="1691.782"
   r="865.57086"
   style="fill:#0d8bb1;stroke-width:3.80638"
   id="circle263" />
                    
                    
                </g><g
   id="main_paths"
   transform="matrix(0.94288745,0,0,0.9428925,-17651.735,-13.229458)"
   inkscape:groupmode="layer"
   style="display:inline">
                    
                    
                    
                    
                    
                    
                    
                    
                <path
   id="path726"
   style="color:#000000;fill:#ffffff;stroke-linecap:round;stroke-linejoin:round;-inkscape-stroke:none"
   d="M 18739.46 14.105288 L 18737.583 24.742022 L 18732.401 23.828527 L 18733.391 18.214983 A 0.43746673 0.43746673 0 0 0 18733.035 17.707485 L 18728.488 16.905846 A 16.969057 16.969057 0 0 0 18727.527 17.624628 L 18732.45 18.494624 L 18731.537 23.677313 L 18723.4 22.24182 A 16.969057 16.969057 0 0 0 18722.452 23.998383 L 18724.662 24.38781 L 18723.835 29.069216 L 18721.107 28.588647 A 16.969057 16.969057 0 0 0 18720.971 30.490209 L 18723.508 30.937635 L 18722.595 36.120324 L 18721.689 35.960825 A 16.969057 16.969057 0 0 0 18722.046 36.913678 L 18722.87 37.058677 A 0.43742299 0.43742299 0 0 0 18723.069 37.042106 A 0.43742299 0.43742299 0 0 0 18723.112 37.029677 A 0.43742299 0.43742299 0 0 0 18723.27 36.917821 A 0.43742299 0.43742299 0 0 0 18723.293 36.888821 A 0.43742299 0.43742299 0 0 0 18723.38 36.702393 L 18724.368 31.09092 L 18736.098 33.158196 L 18735.185 38.340885 L 18729.569 37.350747 A 0.43742299 0.43742299 0 0 0 18729.414 37.35489 A 0.43742299 0.43742299 0 0 0 18729.368 37.36939 A 0.43742299 0.43742299 0 0 0 18729.267 37.414961 A 0.43742299 0.43742299 0 0 0 18729.227 37.441889 A 0.43742299 0.43742299 0 0 0 18729.153 37.520603 A 0.43742299 0.43742299 0 0 0 18729.12 37.566175 A 0.43742299 0.43742299 0 0 0 18729.064 37.707031 L 18727.984 43.82393 L 18726.537 43.569145 A 16.969057 16.969057 0 0 0 18727.976 44.710497 L 18728.264 44.762283 A 0.43746673 0.43746673 0 0 0 18728.772 44.40807 L 18729.851 38.2891 L 18735.034 39.200524 L 18733.592 47.382627 A 16.969057 16.969057 0 0 0 18735.446 47.786554 L 18738.13 32.555413 A 0.947465 0.947465 0 0 0 18738.13 32.553342 A 0.947465 0.947465 0 0 0 18738.13 32.55127 A 0.947465 0.947465 0 0 0 18738.13 32.549199 A 0.947465 0.947465 0 0 0 18738.13 32.547127 L 18739.12 26.937726 L 18743.789 27.760079 L 18740.256 47.801054 A 16.969057 16.969057 0 0 0 18742.25 47.376413 L 18743.431 40.675374 L 18749.494 41.680012 A 0.43742299 0.43742299 0 0 0 18749.995 41.317514 A 0.43742299 0.43742299 0 0 0 18749.637 40.81623 L 18743.582 39.813664 L 18745.693 27.836722 L 18751.122 27.03094 L 18754.223 35.612827 A 16.969057 16.969057 0 0 0 18754.571 34.005406 L 18752.005 26.900441 L 18754.279 26.562799 A 16.969057 16.969057 0 0 0 18753.67 24.73788 L 18752.454 24.918093 L 18752.811 22.896389 A 16.969057 16.969057 0 0 0 18752.125 21.750894 L 18751.543 25.054807 L 18744.92 26.036659 L 18739.45 25.071378 L 18741.335 14.382858 A 16.969057 16.969057 0 0 0 18739.46 14.105288 z M 18725.524 24.539023 L 18737.254 26.608371 L 18736.428 31.291848 L 18724.697 29.222501 L 18725.524 24.539023 z " /></g><g
   inkscape:groupmode="layer"
   id="layer1"
   inkscape:label="paths"
   style="clip-rule:evenodd;display:none;fill-rule:evenodd;stroke-linecap:square;stroke-miterlimit:1.5"><path
     id="path4839"
     style="font-variation-settings:normal;opacity:1;fill:none;fill-opacity:1;stroke:#ffffff;stroke-width:3.23653;stroke-linecap:butt;stroke-linejoin:miter;stroke-miterlimit:1.5;stroke-dasharray:none;stroke-dashoffset:0;stroke-opacity:1;stop-color:#000000;stop-opacity:1"
     d="m -19.057916,-6.2225403 h -4.40204 v -3.58823 l -6.25026,0.0387 v 8.29063 h -3.88289 v 3.90402 h 10.34362 v 5.64646 h 4.48839"
     sodipodi:nodetypes="ccccc" /></g><g
   id="Origin"
   transform="matrix(0.91109602,0,0,0.91110091,-441.04407,-1115.7948)"
   inkscape:groupmode="layer"
   style="display:inline">
                    <ellipse
   cx="559.28955"
   cy="-1181.6154"
   style="fill:#006b8b;stroke:#ffffff;stroke-width:1.64636"
   id="circle759"
   rx="3.793375"
   ry="3.7933958"
   transform="matrix(-0.70710868,0.70710488,-0.70710868,-0.70710488,0,0)" />
                    
                <ellipse
   cx="484.75821"
   cy="-1258.7692"
   style="fill:#006b8b;stroke:#ffffff;stroke-width:1.64636"
   id="ellipse5764"
   rx="3.793375"
   ry="3.7933958"
   transform="matrix(-0.70710868,0.70710488,-0.70710868,-0.70710488,0,0)" /><ellipse
   cx="486.60052"
   cy="-1275.5369"
   style="fill:#006b8b;stroke:#ffffff;stroke-width:1.64636"
   id="ellipse5800"
   rx="3.793375"
   ry="3.7933958"
   transform="matrix(-0.70710868,0.70710488,-0.70710868,-0.70710488,0,0)" /><ellipse
   cx="567.81909"
   cy="-1192.5837"
   style="fill:#006b8b;stroke:#ffffff;stroke-width:1.64636"
   id="ellipse454"
   rx="3.793375"
   ry="3.7933958"
   transform="matrix(-0.70710868,0.70710488,-0.70710868,-0.70710488,0,0)" /></g><g
   id="Destinations"
   transform="matrix(0.35819826,0,0,0.35820018,-150.52041,-352.23226)"
   inkscape:groupmode="layer"
   style="display:inline">
                    
                    
                    
                    
                    
                    
                    
                    
                    
                    
                    
                    
                    
                    
                    
                    
                    
                    
                    
                    <ellipse
   cx="307.91736"
   cy="-1013.6407"
   style="fill:#006b8b;stroke:#ffffff;stroke-width:2.75698px;stroke-linecap:round;stroke-linejoin:round"
   id="circle840"
   rx="4.8196425"
   ry="4.8196688"
   transform="matrix(-0.70710868,0.70710489,-0.70710868,-0.70710489,0,0)" />
                    
                    
                    
                <path
   sodipodi:type="star"
   style="fill:#0d8bb1;stroke:none;stroke-width:44.6679;stroke-linecap:butt;stroke-linejoin:miter;stop-color:#000000"
   id="path4727"
   inkscape:flatsided="true"
   sodipodi:sides="3"
   sodipodi:cx="231.2095"
   sodipodi:cy="196.48665"
   sodipodi:r1="80.002594"
   sodipodi:r2="40.001297"
   sodipodi:arg1="-0.52359878"
   sodipodi:arg2="0.52359878"
   inkscape:rounded="0"
   inkscape:randomized="0"
   d="M 300.49378,156.48535 231.2095,276.48924 161.92522,156.48535 Z"
   transform="matrix(-0.09221907,0.15972728,-0.15972814,-0.09221859,311.2397,996.84941)"
   inkscape:transform-center-y="1.3213454" /><ellipse
   cx="559.05066"
   cy="-924.67102"
   style="fill:#006b8b;stroke:#ffffff;stroke-width:5.58349;stroke-linecap:round;stroke-linejoin:round"
   id="ellipse5629"
   rx="15.513384"
   ry="15.513469"
   transform="matrix(-0.70710868,0.70710489,-0.70710868,-0.70710489,0,0)" /><ellipse
   cx="291.08542"
   cy="-1053.1495"
   style="fill:#006b8b;stroke:#ffffff;stroke-width:2.75698px;stroke-linecap:round;stroke-linejoin:round"
   id="ellipse5633"
   rx="4.8196425"
   ry="4.8196688"
   transform="matrix(-0.70710868,0.70710489,-0.70710868,-0.70710489,0,0)" /><ellipse
   cx="274.79059"
   cy="-1046.9596"
   style="fill:#006b8b;stroke:#ffffff;stroke-width:2.75698px;stroke-linecap:round;stroke-linejoin:round"
   id="ellipse5637"
   rx="4.8196425"
   ry="4.8196688"
   transform="matrix(-0.70710868,0.70710489,-0.70710868,-0.70710489,0,0)" /><path
   style="fill:none;stroke:#0d8bb1;stroke-width:5.58349;stroke-linecap:butt;stroke-linejoin:miter;stroke-opacity:1"
   d="m 258.53333,1008.2824 v -8.82778 h 40.04371"
   id="path5881"
   sodipodi:nodetypes="ccc" /><path
   sodipodi:type="star"
   style="fill:#0d8bb1;stroke:none;stroke-width:44.6679;stroke-linecap:butt;stroke-linejoin:miter;stop-color:#000000"
   id="path456"
   inkscape:flatsided="true"
   sodipodi:sides="3"
   sodipodi:cx="231.2095"
   sodipodi:cy="196.48665"
   sodipodi:r1="80.002594"
   sodipodi:r2="40.001297"
   sodipodi:arg1="-0.52359878"
   sodipodi:arg2="0.52359878"
   inkscape:rounded="0"
   inkscape:randomized="0"
   d="M 300.49378,156.48535 231.2095,276.48924 161.92522,156.48535 Z"
   transform="matrix(0.17815358,-0.04773586,0.04773611,0.17815263,341.79021,969.17319)"
   inkscape:transform-center-x="0.6839846"
   inkscape:transform-center-y="0.68398428" /><path
   style="fill:none;stroke:#0d8bb1;stroke-width:5.58349;stroke-linecap:butt;stroke-linejoin:miter;stroke-opacity:1"
   d="m 387.14365,998.3577 -16.24956,16.2494"
   id="path458" /><path
   sodipodi:type="star"
   style="fill:#0d8bb1;stroke:none;stroke-width:44.6679;stroke-linecap:butt;stroke-linejoin:miter;stop-color:#000000"
   id="path614"
   inkscape:flatsided="true"
   sodipodi:sides="3"
   sodipodi:cx="231.2095"
   sodipodi:cy="196.48665"
   sodipodi:r1="80.002594"
   sodipodi:r2="40.001297"
   sodipodi:arg1="-0.52359878"
   sodipodi:arg2="0.52359878"
   inkscape:rounded="0"
   inkscape:randomized="0"
   d="M 300.49378,156.48535 231.2095,276.48924 161.92522,156.48535 Z"
   transform="matrix(0.15972814,0.09221858,-0.09221908,0.15972728,435.77287,1054.5035)"
   inkscape:transform-center-x="-1.3213475" /><path
   sodipodi:type="star"
   style="fill:#0d8bb1;stroke:none;stroke-width:44.6679;stroke-linecap:butt;stroke-linejoin:miter;stop-color:#000000"
   id="path616"
   inkscape:flatsided="true"
   sodipodi:sides="3"
   sodipodi:cx="231.2095"
   sodipodi:cy="196.48665"
   sodipodi:r1="80.002594"
   sodipodi:r2="40.001297"
   sodipodi:arg1="-0.52359878"
   sodipodi:arg2="0.52359878"
   inkscape:rounded="0"
   inkscape:randomized="0"
   d="M 300.49378,156.48535 231.2095,276.48924 161.92522,156.48535 Z"
   transform="matrix(-0.17784569,-0.04887046,0.04887072,-0.17784473,319.1238,1087.0476)"
   inkscape:transform-center-x="-9.6476318"
   inkscape:transform-center-y="-3.6643862" /><path
   style="fill:none;stroke:#0d8bb1;stroke-width:5.58349;stroke-linecap:butt;stroke-linejoin:miter;stroke-opacity:1"
   d="m 294.74506,1038.9402 7.91516,-2.0668"
   id="path618"
   inkscape:transform-center-x="-16.887066"
   inkscape:transform-center-y="-4.7042189"
   sodipodi:nodetypes="cc" /></g><g
   id="Fast"
   transform="matrix(0.42243909,0,0,0.42244135,5.7450796,-633.73354)"
   inkscape:label="name"
   inkscape:groupmode="layer"
   style="display:inline">
                    <path
   d="m 19.699578,1468.1654 0.9689,-3.6386 h 3.9353 l -0.1881,1.1915 h -2.7633 l -0.4747,1.5572 c 0.2932,-0.1846 0.6393,-0.2768 1.0383,-0.2768 0.6161,0 1.0934,0.2183 1.4311,0.655 0.338,0.4367 0.4805,1.0127 0.4276,1.7279 -0.04,0.4746 -0.1789,0.9014 -0.4177,1.2804 -0.2388,0.379 -0.553,0.6707 -0.9417,0.875 -0.3891,0.2044 -0.8175,0.3016 -1.2856,0.2917 -0.4052,0 -0.7737,-0.096 -1.1048,-0.2793 -0.3314,-0.1829 -0.5893,-0.435 -0.7737,-0.7564 -0.1845,-0.3214 -0.2785,-0.6798 -0.2818,-1.0752 h 1.3693 c 0.013,0.2933 0.094,0.5231 0.2425,0.6896 0.1481,0.1664 0.3494,0.2529 0.6029,0.2595 0.3296,0.01 0.6007,-0.1104 0.8135,-0.3608 0.2123,-0.2506 0.3402,-0.5867 0.3832,-1.0086 0.039,-0.3757 -0.018,-0.6723 -0.1709,-0.8899 -0.1532,-0.2175 -0.3865,-0.3295 -0.6995,-0.3361 -0.3494,-0.01 -0.6724,0.1219 -0.9689,0.3856 z"
   style="fill:#ffffff;fill-rule:nonzero;stroke:#ffffff;stroke-width:0.20869px;stroke-linecap:butt;stroke-miterlimit:2"
   id="path857" />
                    <path
   d="m 13.188478,1473.5059 h -2.0459 l -0.7993,4.5824 H 7.8238779 l 2.175,-12.5178 4.1442001,0.01 c 1.3872,0 2.4548,0.3267 3.2024,0.98 0.7482,0.6535 1.0792,1.562 0.9929,2.7255 -0.1201,1.7194 -1.037,2.9145 -2.7506,3.5851 l 1.7622,5.081 v 0.1376 h -2.6823 z m -1.6849,-2.0892 1.8741,0.017 c 0.6651,-0.011 1.214,-0.1906 1.6465,-0.5373 0.4326,-0.3468 0.692,-0.8182 0.7783,-1.4143 0.08,-0.556 -0.01,-0.9916 -0.2665,-1.3068 -0.2581,-0.3153 -0.6677,-0.4843 -1.2293,-0.5073 l -2.1494,-0.01 z"
   style="fill:#ffffff;fill-rule:nonzero;stroke:#ffffff;stroke-width:0.208297px;stroke-linecap:butt;stroke-miterlimit:2"
   id="path861" />
                    <path
   d="m 32.783078,1473.4559 c -0.1202,0.9759 -0.3757,1.8426 -0.7661,2.6003 -0.3904,0.7578 -0.8754,1.3203 -1.4549,1.6877 -0.5802,0.3674 -1.223,0.5424 -1.929,0.5252 -0.9009,-0.023 -1.6127,-0.3588 -2.1354,-1.0074 l -0.8523,4.4085 h -2.428 l 2.2299,-12.8984 2.2389,-0.01 -0.1636,0.9386 c 0.6716,-0.7577 1.4638,-1.1251 2.3763,-1.1021 0.913,0.023 1.6216,0.3544 2.127,0.9945 0.5048,0.64 0.7744,1.5082 0.8089,2.6046 0.012,0.3559 -0.01,0.7749 -0.052,1.2571 z m -2.4108,-0.1808 0.052,-0.8266 c 0.012,-0.5568 -0.09,-0.9988 -0.3054,-1.326 -0.2154,-0.3272 -0.5297,-0.4966 -0.9431,-0.508 -0.7061,-0.023 -1.2888,0.2755 -1.7482,0.8954 l -0.6971,3.8403 c 0.2122,0.5798 0.669,0.8811 1.3693,0.9041 0.5853,0.017 1.0734,-0.2095 1.4638,-0.6802 0.3898,-0.4707 0.66,-1.2371 0.8089,-2.299 z"
   style="fill:#ffffff;fill-rule:nonzero;stroke:#ffffff;stroke-width:0.208297px;stroke-linecap:butt;stroke-miterlimit:2"
   id="path865" /><path
   d="m 37.407078,1474.5408 2.6606,-5.769 h 2.7034 l -5.4502,10.72 c -0.3904,0.8208 -0.8479,1.4236 -1.3731,1.8082 -0.5252,0.3846 -1.1322,0.5769 -1.821,0.5769 -0.2697,0 -0.6601,-0.06 -1.1712,-0.1809 l 0.1808,-1.8943 0.3355,0.017 c 0.7923,0.023 1.3724,-0.2669 1.7398,-0.8696 l 0.5335,-0.9902 -1.5239,-9.1873 h 2.5143 z"
   style="fill:#ffffff;fill-rule:nonzero;stroke:#ffffff;stroke-width:0.208297px;stroke-linecap:butt;stroke-miterlimit:2"
   id="path867" />
                </g>
</svg>
