<?xml version="1.0" encoding="UTF-8" standalone="no"?>
<!DOCTYPE svg PUBLIC "-//W3C//DTD SVG 1.1//EN" "http://www.w3.org/Graphics/SVG/1.1/DTD/svg11.dtd">
<svg width="100%" height="100%" viewBox="0 0 530 530" version="1.1" xmlns="http://www.w3.org/2000/svg" xmlns:xlink="http://www.w3.org/1999/xlink" xml:space="preserve" xmlns:serif="http://www.serif.com/" style="fill-rule:evenodd;clip-rule:evenodd;stroke-linecap:square;stroke-miterlimit:1.5;">
    <g transform="matrix(1,0,0,1,-4605.25,-863)">
        <g id="R5py-Azul-Circulo" serif:id="R5py Azul Circulo" transform="matrix(0.179961,0,0,0.376302,1752.21,252.063)">
            <rect x="15853.6" y="1623.53" width="2945.08" height="1408.44" style="fill:none;"/>
            <g id="Logo1" transform="matrix(1.70059,0,0,0.813287,15191.8,951.848)">
                <g>
                    <g transform="matrix(3.54597,0,0,3.54597,-70021.1,627.991)">
                        <circle cx="20100.6" cy="300" r="238.895" style="fill:rgb(13,139,177);"/>
                        <path d="M20100.6,61.105C20232.5,61.105 20339.5,168.15 20339.5,300C20339.5,431.85 20232.5,538.895 20100.6,538.895C19968.8,538.895 19861.7,431.85 19861.7,300C19861.7,168.15 19968.8,61.105 20100.6,61.105ZM20100.6,72.624C20226.1,72.624 20328,174.508 20328,300C20328,425.492 20226.1,527.376 20100.6,527.376C19975.1,527.376 19873.2,425.492 19873.2,300C19873.2,174.508 19975.1,72.624 20100.6,72.624Z" style="fill:white;"/>
                    </g>
                    <g transform="matrix(3.54597,0,0,3.54597,-70021.1,627.991)">
                        <circle cx="20100.6" cy="300" r="238.895" style="fill:none;stroke:black;stroke-width:1.15px;"/>
                    </g>
                    <g transform="matrix(3.26753,0,0,3.26753,-64450.5,685.319)">
                        <g transform="matrix(0.923717,-0.383076,0.383076,0.923717,1336.38,7777.79)">
                            <g transform="matrix(15.7941,0,0,15.7941,20197.3,533.395)">
                                <path d="M0.047,-0.269C0.047,-0.351 0.066,-0.416 0.104,-0.465C0.142,-0.514 0.193,-0.538 0.255,-0.538C0.32,-0.538 0.37,-0.515 0.406,-0.47L0.411,-0.528L0.493,-0.528L0.493,-0.013C0.493,0.056 0.473,0.11 0.432,0.149C0.392,0.188 0.337,0.208 0.269,0.208C0.231,0.208 0.194,0.2 0.157,0.184C0.121,0.167 0.093,0.145 0.074,0.117L0.121,0.063C0.159,0.11 0.207,0.134 0.263,0.134C0.307,0.134 0.341,0.122 0.365,0.097C0.39,0.072 0.402,0.038 0.402,-0.007L0.402,-0.053C0.366,-0.011 0.317,0.01 0.254,0.01C0.193,0.01 0.142,-0.015 0.104,-0.065C0.066,-0.115 0.047,-0.183 0.047,-0.269ZM0.138,-0.258C0.138,-0.199 0.15,-0.152 0.174,-0.118C0.199,-0.084 0.233,-0.067 0.277,-0.067C0.334,-0.067 0.376,-0.093 0.402,-0.145L0.402,-0.386C0.375,-0.436 0.333,-0.461 0.278,-0.461C0.234,-0.461 0.2,-0.444 0.175,-0.41C0.15,-0.376 0.138,-0.325 0.138,-0.258Z" style="fill:white;fill-rule:nonzero;"/>
                            </g>
                        </g>
                        <g transform="matrix(0.913205,-0.407499,0.407499,0.913205,1537.73,8279.66)">
                            <g transform="matrix(15.7941,0,0,15.7941,20205.3,530.019)">
                                <path d="M0.167,-0L0.076,-0L0.076,-0.528L0.167,-0.528L0.167,-0ZM0.069,-0.668C0.069,-0.683 0.073,-0.695 0.082,-0.706C0.091,-0.716 0.104,-0.721 0.122,-0.721C0.14,-0.721 0.153,-0.716 0.162,-0.706C0.171,-0.695 0.176,-0.683 0.176,-0.668C0.176,-0.654 0.171,-0.642 0.162,-0.632C0.153,-0.622 0.14,-0.617 0.122,-0.617C0.104,-0.617 0.091,-0.622 0.082,-0.632C0.073,-0.642 0.069,-0.654 0.069,-0.668Z" style="fill:white;fill-rule:nonzero;"/>
                            </g>
                        </g>
                        <g transform="matrix(0.906074,-0.42312,0.42312,0.906074,1674.51,8600.35)">
                            <g transform="matrix(15.7941,0,0,15.7941,20208.7,528.504)">
                                <path d="M0.191,-0.656L0.191,-0.528L0.29,-0.528L0.29,-0.458L0.191,-0.458L0.191,-0.131C0.191,-0.11 0.195,-0.094 0.204,-0.083C0.213,-0.073 0.228,-0.067 0.249,-0.067C0.259,-0.067 0.274,-0.069 0.292,-0.073L0.292,-0C0.268,0.007 0.245,0.01 0.223,0.01C0.182,0.01 0.152,-0.002 0.131,-0.027C0.111,-0.051 0.101,-0.086 0.101,-0.131L0.101,-0.458L0.004,-0.458L0.004,-0.528L0.101,-0.528L0.101,-0.656L0.191,-0.656Z" style="fill:white;fill-rule:nonzero;"/>
                            </g>
                        </g>
                        <g transform="matrix(0.893288,-0.449485,0.449485,0.893288,1920.4,9141.75)">
                            <g transform="matrix(15.7941,0,0,15.7941,20213.3,526.391)">
                                <path d="M0.159,-0.464C0.199,-0.514 0.251,-0.538 0.315,-0.538C0.427,-0.538 0.483,-0.475 0.484,-0.349L0.484,-0L0.394,-0L0.394,-0.35C0.393,-0.388 0.385,-0.416 0.367,-0.434C0.35,-0.452 0.324,-0.461 0.288,-0.461C0.258,-0.461 0.233,-0.454 0.21,-0.438C0.188,-0.422 0.171,-0.402 0.159,-0.376L0.159,-0L0.068,-0L0.068,-0.75L0.159,-0.75L0.159,-0.464Z" style="fill:white;fill-rule:nonzero;"/>
                            </g>
                        </g>
                        <g transform="matrix(0.876931,-0.480617,0.480617,0.876931,2237.42,9782.83)">
                            <g transform="matrix(15.7941,0,0,15.7941,20220.9,522.563)">
                                <path d="M0.395,-0.052C0.359,-0.011 0.308,0.01 0.24,0.01C0.183,0.01 0.141,-0.007 0.111,-0.039C0.082,-0.072 0.067,-0.12 0.066,-0.185L0.066,-0.528L0.157,-0.528L0.157,-0.187C0.157,-0.107 0.189,-0.067 0.254,-0.067C0.323,-0.067 0.369,-0.093 0.392,-0.144L0.392,-0.528L0.482,-0.528L0.482,-0L0.396,-0L0.395,-0.052Z" style="fill:white;fill-rule:nonzero;"/>
                            </g>
                        </g>
                        <g transform="matrix(0.858881,-0.512176,0.512176,0.858881,2589.07,10433.7)">
                            <g transform="matrix(15.7941,0,0,15.7941,20228.4,518.475)">
                                <path d="M0.516,-0.258C0.516,-0.178 0.497,-0.113 0.46,-0.064C0.423,-0.015 0.373,0.01 0.311,0.01C0.244,0.01 0.192,-0.014 0.156,-0.061L0.151,-0L0.068,-0L0.068,-0.75L0.159,-0.75L0.159,-0.47C0.195,-0.515 0.245,-0.538 0.31,-0.538C0.374,-0.538 0.424,-0.514 0.461,-0.465C0.497,-0.417 0.516,-0.35 0.516,-0.266L0.516,-0.258ZM0.425,-0.269C0.425,-0.33 0.413,-0.378 0.39,-0.411C0.366,-0.445 0.332,-0.461 0.287,-0.461C0.228,-0.461 0.185,-0.434 0.159,-0.378L0.159,-0.15C0.186,-0.095 0.229,-0.067 0.288,-0.067C0.331,-0.067 0.365,-0.084 0.389,-0.117C0.413,-0.151 0.425,-0.201 0.425,-0.269Z" style="fill:white;fill-rule:nonzero;"/>
                            </g>
                        </g>
                        <g transform="matrix(0.845635,-0.533762,0.533762,0.845635,2849.38,10880.5)">
                            <g transform="matrix(15.7941,0,0,15.7941,20235.9,513.969)">
                                <path d="M0.07,-0.047C0.07,-0.063 0.075,-0.076 0.084,-0.086C0.094,-0.097 0.107,-0.102 0.126,-0.102C0.145,-0.102 0.159,-0.097 0.168,-0.086C0.178,-0.076 0.183,-0.063 0.183,-0.047C0.183,-0.032 0.178,-0.02 0.168,-0.01C0.159,0 0.145,0.005 0.126,0.005C0.107,0.005 0.094,0 0.084,-0.01C0.075,-0.02 0.07,-0.032 0.07,-0.047Z" style="fill:white;fill-rule:nonzero;"/>
                            </g>
                        </g>
                        <g transform="matrix(0.831566,-0.555426,0.555426,0.831566,3124.71,11327.7)">
                            <g transform="matrix(15.7941,0,0,15.7941,20239.3,511.837)">
                                <path d="M0.28,-0.064C0.313,-0.064 0.341,-0.074 0.365,-0.093C0.389,-0.113 0.402,-0.137 0.405,-0.167L0.49,-0.167C0.489,-0.136 0.478,-0.107 0.459,-0.08C0.44,-0.053 0.414,-0.031 0.382,-0.015C0.35,0.002 0.316,0.01 0.28,0.01C0.208,0.01 0.151,-0.014 0.109,-0.062C0.066,-0.11 0.045,-0.176 0.045,-0.259L0.045,-0.274C0.045,-0.326 0.054,-0.372 0.073,-0.412C0.092,-0.452 0.119,-0.483 0.155,-0.505C0.19,-0.527 0.232,-0.538 0.28,-0.538C0.339,-0.538 0.388,-0.52 0.427,-0.485C0.467,-0.449 0.488,-0.403 0.49,-0.347L0.405,-0.347C0.402,-0.381 0.389,-0.409 0.366,-0.431C0.343,-0.453 0.314,-0.464 0.28,-0.464C0.234,-0.464 0.198,-0.447 0.173,-0.414C0.148,-0.381 0.135,-0.333 0.135,-0.271L0.135,-0.254C0.135,-0.193 0.148,-0.146 0.173,-0.113C0.198,-0.08 0.234,-0.064 0.28,-0.064Z" style="fill:white;fill-rule:nonzero;"/>
                            </g>
                        </g>
                        <g transform="matrix(0.811921,-0.583767,0.583767,0.811921,3511.69,11914.4)">
                            <g transform="matrix(15.7941,0,0,15.7941,20246.1,507.344)">
                                <path d="M0.044,-0.269C0.044,-0.321 0.055,-0.367 0.075,-0.409C0.095,-0.45 0.124,-0.482 0.16,-0.504C0.196,-0.527 0.238,-0.538 0.284,-0.538C0.356,-0.538 0.414,-0.513 0.459,-0.463C0.503,-0.414 0.525,-0.347 0.525,-0.265L0.525,-0.258C0.525,-0.207 0.516,-0.161 0.496,-0.12C0.476,-0.079 0.448,-0.047 0.411,-0.024C0.375,-0.002 0.333,0.01 0.285,0.01C0.214,0.01 0.156,-0.015 0.111,-0.065C0.067,-0.115 0.044,-0.181 0.044,-0.263L0.044,-0.269ZM0.135,-0.258C0.135,-0.2 0.149,-0.153 0.176,-0.117C0.203,-0.082 0.24,-0.064 0.285,-0.064C0.331,-0.064 0.368,-0.082 0.395,-0.118C0.422,-0.154 0.435,-0.204 0.435,-0.269C0.435,-0.327 0.421,-0.374 0.394,-0.41C0.366,-0.446 0.33,-0.464 0.284,-0.464C0.24,-0.464 0.204,-0.446 0.176,-0.411C0.149,-0.375 0.135,-0.324 0.135,-0.258Z" style="fill:white;fill-rule:nonzero;"/>
                            </g>
                        </g>
                        <g transform="matrix(0.784231,-0.620469,0.620469,0.784231,4058.37,12674.9)">
                            <g transform="matrix(15.7941,0,0,15.7941,20253.2,502.275)">
                                <path d="M0.153,-0.528L0.156,-0.47C0.194,-0.515 0.247,-0.538 0.313,-0.538C0.386,-0.538 0.437,-0.51 0.463,-0.453C0.481,-0.479 0.504,-0.499 0.532,-0.515C0.56,-0.53 0.593,-0.538 0.632,-0.538C0.748,-0.538 0.807,-0.477 0.809,-0.354L0.809,-0L0.718,-0L0.718,-0.349C0.718,-0.386 0.71,-0.415 0.692,-0.433C0.675,-0.452 0.646,-0.461 0.605,-0.461C0.572,-0.461 0.544,-0.451 0.522,-0.431C0.5,-0.411 0.487,-0.384 0.483,-0.351L0.483,-0L0.393,-0L0.393,-0.346C0.393,-0.423 0.355,-0.461 0.28,-0.461C0.221,-0.461 0.18,-0.436 0.158,-0.386L0.158,-0L0.068,-0L0.068,-0.528L0.153,-0.528Z" style="fill:white;fill-rule:nonzero;"/>
                            </g>
                        </g>
                        <g transform="matrix(0.758608,-0.651547,0.651547,0.758608,4569.84,13322.1)">
                            <g transform="matrix(15.7941,0,0,15.7941,20263.9,493.752)">
                                <path d="M0.086,0.061L0.009,0.061L0.306,-0.711L0.383,-0.711L0.086,0.061Z" style="fill:white;fill-rule:nonzero;"/>
                            </g>
                        </g>
                        <g transform="matrix(0.741236,-0.671244,0.671244,0.741236,4916.19,13732)">
                            <g transform="matrix(15.7941,0,0,15.7941,20268.7,489.58)">
                                <path d="M0.324,-0.447C0.31,-0.45 0.295,-0.451 0.279,-0.451C0.22,-0.451 0.18,-0.425 0.159,-0.375L0.159,-0L0.068,-0L0.068,-0.528L0.156,-0.528L0.158,-0.467C0.187,-0.514 0.229,-0.538 0.284,-0.538C0.301,-0.538 0.315,-0.536 0.324,-0.531L0.324,-0.447Z" style="fill:white;fill-rule:nonzero;"/>
                            </g>
                        </g>
                        <g transform="matrix(0.722206,-0.691678,0.691678,0.722206,5295.37,14157.2)">
                            <g transform="matrix(15.7941,0,0,15.7941,20272.6,486.122)">
                                <path d="M0.101,-0.356L0.137,-0.711L0.501,-0.711L0.501,-0.627L0.213,-0.627L0.192,-0.434C0.227,-0.454 0.266,-0.464 0.311,-0.464C0.375,-0.464 0.427,-0.443 0.465,-0.4C0.503,-0.357 0.522,-0.299 0.522,-0.227C0.522,-0.153 0.502,-0.096 0.463,-0.053C0.423,-0.011 0.368,0.01 0.297,0.01C0.234,0.01 0.183,-0.008 0.143,-0.042C0.103,-0.077 0.081,-0.125 0.075,-0.187L0.161,-0.187C0.166,-0.146 0.181,-0.116 0.204,-0.095C0.228,-0.074 0.258,-0.064 0.297,-0.064C0.339,-0.064 0.372,-0.078 0.396,-0.107C0.42,-0.136 0.432,-0.175 0.432,-0.226C0.432,-0.273 0.419,-0.311 0.393,-0.34C0.367,-0.369 0.333,-0.383 0.29,-0.383C0.25,-0.383 0.219,-0.375 0.197,-0.357L0.173,-0.338L0.101,-0.356Z" style="fill:white;fill-rule:nonzero;"/>
                            </g>
                        </g>
                        <g transform="matrix(0.697369,-0.716713,0.716713,0.697369,5792.94,14679.5)">
                            <g transform="matrix(15.7941,0,0,15.7941,20278.9,480.101)">
                                <path d="M0.515,-0.258C0.515,-0.178 0.496,-0.113 0.459,-0.064C0.423,-0.015 0.373,0.01 0.31,0.01C0.246,0.01 0.195,-0.011 0.159,-0.051L0.159,0.203L0.068,0.203L0.068,-0.528L0.151,-0.528L0.155,-0.47C0.192,-0.515 0.243,-0.538 0.309,-0.538C0.372,-0.538 0.422,-0.514 0.459,-0.466C0.496,-0.418 0.515,-0.352 0.515,-0.267L0.515,-0.258ZM0.424,-0.269C0.424,-0.328 0.412,-0.375 0.386,-0.41C0.361,-0.444 0.326,-0.461 0.282,-0.461C0.227,-0.461 0.186,-0.437 0.159,-0.389L0.159,-0.136C0.186,-0.088 0.227,-0.064 0.283,-0.064C0.326,-0.064 0.36,-0.081 0.386,-0.115C0.412,-0.15 0.424,-0.201 0.424,-0.269Z" style="fill:white;fill-rule:nonzero;"/>
                            </g>
                        </g>
                        <g transform="matrix(0.674275,-0.73848,0.73848,0.674275,6257.33,15134.4)">
                            <g transform="matrix(15.7941,0,0,15.7941,20284.9,473.919)">
                                <path d="M0.241,-0.132L0.364,-0.528L0.461,-0.528L0.249,0.082C0.216,0.169 0.163,0.213 0.092,0.213L0.075,0.212L0.041,0.206L0.041,0.132L0.065,0.134C0.096,0.134 0.12,0.128 0.137,0.116C0.154,0.103 0.168,0.081 0.179,0.048L0.199,-0.006L0.011,-0.528L0.109,-0.528L0.241,-0.132Z" style="fill:white;fill-rule:nonzero;"/>
                            </g>
                        </g>
                        <g transform="matrix(0.653665,-0.756784,0.756784,0.653665,6672.55,15517.3)">
                            <g transform="matrix(15.7941,0,0,15.7941,20289.9,468.484)">
                                <path d="M0.086,0.061L0.009,0.061L0.306,-0.711L0.383,-0.711L0.086,0.061Z" style="fill:white;fill-rule:nonzero;"/>
                            </g>
                        </g>
                        <g transform="matrix(0.633694,-0.773584,0.773584,0.633694,7075.13,15869)">
                            <g transform="matrix(15.7941,0,0,15.7941,20294,463.672)">
                                <path d="M0.324,-0.447C0.31,-0.45 0.295,-0.451 0.279,-0.451C0.22,-0.451 0.18,-0.425 0.159,-0.375L0.159,-0L0.068,-0L0.068,-0.528L0.156,-0.528L0.158,-0.467C0.187,-0.514 0.229,-0.538 0.284,-0.538C0.301,-0.538 0.315,-0.536 0.324,-0.531L0.324,-0.447Z" style="fill:white;fill-rule:nonzero;"/>
                            </g>
                        </g>
                        <g transform="matrix(0.611718,-0.791076,0.791076,0.611718,7517.48,16235.2)">
                            <g transform="matrix(15.7941,0,0,15.7941,20297.4,459.655)">
                                <path d="M0.101,-0.356L0.137,-0.711L0.501,-0.711L0.501,-0.627L0.213,-0.627L0.192,-0.434C0.227,-0.454 0.266,-0.464 0.311,-0.464C0.375,-0.464 0.427,-0.443 0.465,-0.4C0.503,-0.357 0.522,-0.299 0.522,-0.227C0.522,-0.153 0.502,-0.096 0.463,-0.053C0.423,-0.011 0.368,0.01 0.297,0.01C0.234,0.01 0.183,-0.008 0.143,-0.042C0.103,-0.077 0.081,-0.125 0.075,-0.187L0.161,-0.187C0.166,-0.146 0.181,-0.116 0.204,-0.095C0.228,-0.074 0.258,-0.064 0.297,-0.064C0.339,-0.064 0.372,-0.078 0.396,-0.107C0.42,-0.136 0.432,-0.175 0.432,-0.226C0.432,-0.273 0.419,-0.311 0.393,-0.34C0.367,-0.369 0.333,-0.383 0.29,-0.383C0.25,-0.383 0.219,-0.375 0.197,-0.357L0.173,-0.338L0.101,-0.356Z" style="fill:white;fill-rule:nonzero;"/>
                            </g>
                        </g>
                        <g transform="matrix(0.583387,-0.812194,0.812194,0.583387,8090.63,16678.4)">
                            <g transform="matrix(15.7941,0,0,15.7941,20302.7,452.772)">
                                <path d="M0.515,-0.258C0.515,-0.178 0.496,-0.113 0.459,-0.064C0.423,-0.015 0.373,0.01 0.31,0.01C0.246,0.01 0.195,-0.011 0.159,-0.051L0.159,0.203L0.068,0.203L0.068,-0.528L0.151,-0.528L0.155,-0.47C0.192,-0.515 0.243,-0.538 0.309,-0.538C0.372,-0.538 0.422,-0.514 0.459,-0.466C0.496,-0.418 0.515,-0.352 0.515,-0.267L0.515,-0.258ZM0.424,-0.269C0.424,-0.328 0.412,-0.375 0.386,-0.41C0.361,-0.444 0.326,-0.461 0.282,-0.461C0.227,-0.461 0.186,-0.437 0.159,-0.389L0.159,-0.136C0.186,-0.088 0.227,-0.064 0.283,-0.064C0.326,-0.064 0.36,-0.081 0.386,-0.115C0.412,-0.15 0.424,-0.201 0.424,-0.269Z" style="fill:white;fill-rule:nonzero;"/>
                            </g>
                        </g>
                        <g transform="matrix(0.55722,-0.830365,0.830365,0.55722,8621.72,17060.2)">
                            <g transform="matrix(15.7941,0,0,15.7941,20307.7,445.768)">
                                <path d="M0.241,-0.132L0.364,-0.528L0.461,-0.528L0.249,0.082C0.216,0.169 0.163,0.213 0.092,0.213L0.075,0.212L0.041,0.206L0.041,0.132L0.065,0.134C0.096,0.134 0.12,0.128 0.137,0.116C0.154,0.103 0.168,0.081 0.179,0.048L0.199,-0.006L0.011,-0.528L0.109,-0.528L0.241,-0.132Z" style="fill:white;fill-rule:nonzero;"/>
                            </g>
                        </g>
                    </g>
                </g>
                <g id="grid_rotated" transform="matrix(0.358074,0.982926,-0.982926,0.358074,2939.01,66.8149)">
                    <path d="M1290.62,2125.98L1594.49,2125.98" style="fill:none;stroke:rgb(102,102,102);stroke-width:2.6px;stroke-linecap:round;"/>
                    <g transform="matrix(1,3.08149e-33,-3.08149e-33,1,-7.10543e-15,59.0551)">
                        <path d="M1299.45,2125.98L1594.32,2125.98" style="fill:none;stroke:rgb(102,102,102);stroke-width:2.6px;stroke-linecap:round;"/>
                    </g>
                    <g transform="matrix(1,3.08149e-33,-3.08149e-33,1,-7.10543e-15,118.11)">
                        <path d="M1367.87,2125.98L1594.52,2125.98" style="fill:none;stroke:rgb(102,102,102);stroke-width:2.6px;stroke-linecap:round;"/>
                    </g>
                    <g transform="matrix(1,3.08149e-33,-3.08149e-33,1,-7.10543e-15,177.165)">
                        <path d="M1465.09,2125.98L1592.5,2125.98" style="fill:none;stroke:rgb(102,102,102);stroke-width:2.6px;stroke-linecap:round;"/>
                    </g>
                    <g transform="matrix(1,3.08149e-33,-3.08149e-33,1,-7.10543e-15,-59.0551)">
                        <path d="M1182.3,2125.98L1594.49,2125.98" style="fill:none;stroke:rgb(102,102,102);stroke-width:2.6px;stroke-linecap:round;"/>
                    </g>
                    <g transform="matrix(1,3.08149e-33,-3.08149e-33,1,-7.10543e-15,-118.11)">
                        <path d="M1082.76,2126.99L1476.38,2125.98" style="fill:none;stroke:rgb(102,102,102);stroke-width:2.6px;stroke-linecap:round;"/>
                    </g>
                    <g transform="matrix(1,3.08149e-33,-3.08149e-33,1,-7.10543e-15,-177.165)">
                        <path d="M961.398,2125.98L1476.38,2125.98" style="fill:none;stroke:rgb(102,102,102);stroke-width:2.6px;stroke-linecap:round;"/>
                    </g>
                    <g transform="matrix(1,3.08149e-33,-3.08149e-33,1,-7.10543e-15,-236.22)">
                        <path d="M971.721,2125.98L1476.38,2125.98" style="fill:none;stroke:rgb(102,102,102);stroke-width:2.6px;stroke-linecap:round;"/>
                    </g>
                    <g transform="matrix(1,3.08149e-33,-3.08149e-33,1,-7.10543e-15,-295.276)">
                        <path d="M983.823,2125.98L1476.38,2125.98" style="fill:none;stroke:rgb(102,102,102);stroke-width:2.6px;stroke-linecap:round;"/>
                    </g>
                    <g transform="matrix(1,3.08149e-33,-3.08149e-33,1,-7.10543e-15,-354.331)">
                        <path d="M1017.9,2125.98L1476.38,2125.98" style="fill:none;stroke:rgb(102,102,102);stroke-width:2.6px;stroke-linecap:round;"/>
                    </g>
                    <g transform="matrix(1,3.08149e-33,-3.08149e-33,1,-7.10543e-15,-413.386)">
                        <path d="M1048.29,2125.98L1476.38,2125.98" style="fill:none;stroke:rgb(102,102,102);stroke-width:2.6px;stroke-linecap:round;"/>
                    </g>
                    <g transform="matrix(1,3.08149e-33,-3.08149e-33,1,-7.10543e-15,-472.441)">
                        <path d="M1074.97,2138.86L1359.5,2132.53" style="fill:none;stroke:rgb(102,102,102);stroke-width:2.6px;stroke-linecap:round;"/>
                    </g>
                    <g transform="matrix(1,0,0,1,295.276,0)">
                        <path d="M708.661,1789.37L708.661,1968.94" style="fill:none;stroke:rgb(102,102,102);stroke-width:2.6px;stroke-linecap:round;"/>
                    </g>
                    <g transform="matrix(1,0,0,1,354.331,0)">
                        <path d="M708.661,1687.15L708.661,2003.06" style="fill:none;stroke:rgb(102,102,102);stroke-width:2.6px;stroke-linecap:round;"/>
                    </g>
                    <g transform="matrix(1,0,0,1,413.386,0)">
                        <path d="M708.661,1665.37L708.661,2037.18" style="fill:none;stroke:rgb(102,102,102);stroke-width:2.6px;stroke-linecap:round;"/>
                    </g>
                    <g transform="matrix(1,0,0,1,472.441,0)">
                        <path d="M708.661,1664.06L708.661,2071.3" style="fill:none;stroke:rgb(102,102,102);stroke-width:2.6px;stroke-linecap:round;"/>
                    </g>
                    <g transform="matrix(1,0,0,1,531.496,0)">
                        <path d="M708.661,1662.74L708.661,2105.41" style="fill:none;stroke:rgb(102,102,102);stroke-width:2.6px;stroke-linecap:round;"/>
                    </g>
                    <g transform="matrix(1,0,0,1,590.551,0)">
                        <path d="M708.661,1661.43L708.661,2203.64" style="fill:none;stroke:rgb(102,102,102);stroke-width:2.6px;stroke-linecap:round;"/>
                    </g>
                    <g transform="matrix(1,0,0,1,649.606,0)">
                        <path d="M708.661,1659.64L708.661,2241.37" style="fill:none;stroke:rgb(102,102,102);stroke-width:2.6px;stroke-linecap:round;"/>
                    </g>
                    <g transform="matrix(1,0,0,1,708.661,0)">
                        <path d="M708.661,1712.6L708.661,2272.93" style="fill:none;stroke:rgb(102,102,102);stroke-width:2.6px;stroke-linecap:round;"/>
                    </g>
                    <g transform="matrix(1,0,0,1,767.717,0)">
                        <path d="M708.661,1712.6L708.661,2307.26" style="fill:none;stroke:rgb(102,102,102);stroke-width:2.6px;stroke-linecap:round;"/>
                    </g>
                    <g transform="matrix(1,0,0,1,826.772,0)">
                        <path d="M708.661,2066.93L708.661,2303.15" style="fill:none;stroke:rgb(102,102,102);stroke-width:2.6px;stroke-linecap:round;"/>
                    </g>
                    <g transform="matrix(1,0,0,1,885.827,0)">
                        <path d="M708.661,2066.93L708.661,2303.87" style="fill:none;stroke:rgb(102,102,102);stroke-width:2.6px;stroke-linecap:round;"/>
                    </g>
                </g>
                <g id="grid" transform="matrix(1.03022,0.181656,-0.181656,1.03022,351.976,-333.483)">
                    <path d="M708.661,2125.98L1240.58,2125.98" style="fill:none;stroke:rgb(102,102,102);stroke-width:2.6px;"/>
                    <g transform="matrix(1,3.08149e-33,-3.08149e-33,1,-7.10543e-15,59.0551)">
                        <path d="M708.661,2125.98L1240.58,2125.98" style="fill:none;stroke:rgb(102,102,102);stroke-width:2.6px;"/>
                    </g>
                    <g transform="matrix(1,3.08149e-33,-3.08149e-33,1,-7.10543e-15,118.11)">
                        <path d="M885.827,2125.98L1240.58,2125.98" style="fill:none;stroke:rgb(102,102,102);stroke-width:2.6px;"/>
                    </g>
                    <g transform="matrix(1,3.08149e-33,-3.08149e-33,1,-7.10543e-15,177.165)">
                        <path d="M944.979,2125.98L1242.13,2125.98" style="fill:none;stroke:rgb(102,102,102);stroke-width:2.6px;"/>
                    </g>
                    <g transform="matrix(1,3.08149e-33,-3.08149e-33,1,-7.10543e-15,236.22)">
                        <path d="M1117.46,2125.98L1241.31,2125.98" style="fill:none;stroke:rgb(102,102,102);stroke-width:2.6px;"/>
                    </g>
                    <g transform="matrix(1,3.08149e-33,-3.08149e-33,1,-7.10543e-15,295.276)">
                        <path d="M1122.05,2125.14L1269.92,2124.84" style="fill:none;stroke:rgb(102,102,102);stroke-width:2.6px;"/>
                    </g>
                    <g transform="matrix(1,3.08149e-33,-3.08149e-33,1,-7.10543e-15,354.331)">
                        <path d="M1122.05,2125.98L1292.64,2125.98" style="fill:none;stroke:rgb(102,102,102);stroke-width:2.6px;"/>
                    </g>
                    <g transform="matrix(1,3.08149e-33,-3.08149e-33,1,-7.10543e-15,-59.0551)">
                        <path d="M708.661,2125.98L1297.88,2125.98" style="fill:none;stroke:rgb(102,102,102);stroke-width:2.6px;"/>
                    </g>
                    <g transform="matrix(1,3.08149e-33,-3.08149e-33,1,-7.10543e-15,-118.11)">
                        <path d="M826.772,2125.98L1240.58,2125.98" style="fill:none;stroke:rgb(102,102,102);stroke-width:2.6px;"/>
                    </g>
                    <g transform="matrix(1,3.08149e-33,-3.08149e-33,1,-7.10543e-15,-177.165)">
                        <path d="M826.772,2125.98L1299.21,2125.98" style="fill:none;stroke:rgb(102,102,102);stroke-width:2.6px;"/>
                    </g>
                    <g transform="matrix(1,3.08149e-33,-3.08149e-33,1,-7.10543e-15,-236.22)">
                        <path d="M825.138,2125.98L1298.56,2125.98" style="fill:none;stroke:rgb(102,102,102);stroke-width:2.6px;"/>
                    </g>
                    <g transform="matrix(1,3.08149e-33,-3.08149e-33,1,-7.10543e-15,-295.276)">
                        <path d="M824.107,2125.98L1299.15,2125.98" style="fill:none;stroke:rgb(102,102,102);stroke-width:2.6px;"/>
                    </g>
                    <g transform="matrix(1,3.08149e-33,-3.08149e-33,1,-7.10543e-15,-354.331)">
                        <path d="M825.101,2125.98L1240.58,2125.51" style="fill:none;stroke:rgb(102,102,102);stroke-width:2.6px;"/>
                    </g>
                    <g transform="matrix(1,3.08149e-33,-3.08149e-33,1,-7.10543e-15,-413.386)">
                        <path d="M885.827,2125.98L1653.54,2125.98" style="fill:none;stroke:rgb(102,102,102);stroke-width:2.6px;"/>
                    </g>
                    <g transform="matrix(1,3.08149e-33,-3.08149e-33,1,-7.10543e-15,-472.441)">
                        <path d="M885.827,2125.98L1653.54,2125.98" style="fill:none;stroke:rgb(102,102,102);stroke-width:2.6px;"/>
                    </g>
                    <g transform="matrix(1,3.08149e-33,-3.08149e-33,1,-7.10543e-15,-531.496)">
                        <path d="M885.827,2125.98L1417.6,2125.98" style="fill:none;stroke:rgb(102,102,102);stroke-width:2.6px;"/>
                    </g>
                    <g transform="matrix(1,3.08149e-33,-3.08149e-33,1,-10.709,-592.23)">
                        <path d="M1132.76,2125.98L1309.92,2125.98" style="fill:none;stroke:rgb(102,102,102);stroke-width:2.6px;"/>
                    </g>
                    <path d="M708.661,2066.93L708.661,2185.11" style="fill:none;stroke:rgb(102,102,102);stroke-width:2.6px;"/>
                    <g transform="matrix(1,0,0,1,59.0551,0)">
                        <path d="M708.661,2066.93L708.661,2185.57" style="fill:none;stroke:rgb(102,102,102);stroke-width:2.6px;"/>
                    </g>
                    <g transform="matrix(1,0,0,1,118.11,0)">
                        <path d="M708.661,1772.21L708.661,2187.02" style="fill:none;stroke:rgb(102,102,102);stroke-width:2.6px;"/>
                    </g>
                    <g transform="matrix(1,0,0,1,177.165,0)">
                        <path d="M708.661,1594.49L708.661,2244.09" style="fill:none;stroke:rgb(102,102,102);stroke-width:2.6px;"/>
                    </g>
                    <g transform="matrix(1,0,0,1,236.22,0)">
                        <path d="M708.661,1594.49L708.661,2302.6" style="fill:none;stroke:rgb(102,102,102);stroke-width:2.6px;"/>
                    </g>
                    <g transform="matrix(1,0,0,1,295.276,0)">
                        <path d="M708.661,1594.49L708.661,2303.15" style="fill:none;stroke:rgb(102,102,102);stroke-width:2.6px;"/>
                    </g>
                    <g transform="matrix(1,0,0,1,354.331,0)">
                        <path d="M708.661,1594.49L708.661,2303.15" style="fill:none;stroke:rgb(102,102,102);stroke-width:2.6px;"/>
                    </g>
                    <g transform="matrix(1,0,0,1,413.386,0)">
                        <path d="M708.661,1533.75L708.661,2480.32" style="fill:none;stroke:rgb(102,102,102);stroke-width:2.6px;"/>
                    </g>
                    <g transform="matrix(1,0,0,1,472.441,0)">
                        <path d="M708.661,1533.75L708.661,2480.32" style="fill:none;stroke:rgb(102,102,102);stroke-width:2.6px;"/>
                    </g>
                    <g transform="matrix(1,0,0,1,531.496,0)">
                        <path d="M708.661,1594.49L708.661,2480.32" style="fill:none;stroke:rgb(102,102,102);stroke-width:2.6px;"/>
                    </g>
                    <g transform="matrix(1,0,0,1,590.551,0)">
                        <path d="M708.661,1533.75L708.661,2128.33" style="fill:none;stroke:rgb(102,102,102);stroke-width:2.6px;"/>
                    </g>
                    <g transform="matrix(1,0,0,1,649.606,0)">
                        <path d="M708.661,1594.49L708.661,1735.63" style="fill:none;stroke:rgb(102,102,102);stroke-width:2.6px;"/>
                    </g>
                    <g transform="matrix(1,0,0,1,708.661,0)">
                        <path d="M708.661,1594.49L708.661,1712.06" style="fill:none;stroke:rgb(102,102,102);stroke-width:2.6px;"/>
                    </g>
                    <g transform="matrix(1,0,0,1,767.717,0)">
                        <path d="M708.661,1653.54L708.661,1711.83" style="fill:none;stroke:rgb(102,102,102);stroke-width:2.6px;"/>
                    </g>
                    <g transform="matrix(1,0,0,1,826.772,0)">
                        <path d="M708.661,1653.54L708.661,1711.83" style="fill:none;stroke:rgb(102,102,102);stroke-width:2.6px;"/>
                    </g>
                    <g transform="matrix(1,0,0,1,885.827,0)">
                        <path d="M708.661,1653.54L708.661,1711.83" style="fill:none;stroke:rgb(102,102,102);stroke-width:2.6px;"/>
                    </g>
                    <g transform="matrix(1,0,0,1,944.882,0)">
                        <path d="M708.661,1653.54L708.661,1806.57" style="fill:none;stroke:rgb(102,102,102);stroke-width:2.6px;"/>
                    </g>
                </g>
                <g id="Layer1" transform="matrix(1.03543,0.182575,-0.182575,1.03543,387.245,-211.182)">
                    <path d="M885.827,2066.93L767.717,2066.93" style="fill:none;stroke:white;stroke-width:7.77px;stroke-linecap:round;stroke-linejoin:round;"/>
                    <path d="M1122.05,1889.76L1062.99,1889.76" style="fill:none;stroke:white;stroke-width:7.77px;stroke-linecap:round;stroke-linejoin:round;"/>
                    <path d="M1062.99,1889.76L1062.99,2125.98" style="fill:none;stroke:white;stroke-width:7.77px;stroke-linecap:round;stroke-linejoin:round;"/>
                    <path d="M826.772,1653.54L826.772,1889.76" style="fill:none;stroke:white;stroke-width:7.77px;stroke-linecap:round;stroke-linejoin:round;"/>
                    <path d="M1003.94,1653.54L1003.94,1771.65" style="fill:none;stroke:white;stroke-width:7.77px;stroke-linecap:round;stroke-linejoin:round;"/>
                    <path d="M1003.94,1771.65L944.882,1771.65" style="fill:none;stroke:white;stroke-width:7.77px;stroke-linecap:round;stroke-linejoin:round;"/>
                    <path d="M944.882,1889.76L885.827,1889.76L885.827,2066.93" style="fill:none;stroke:white;stroke-width:7.77px;stroke-linecap:round;stroke-linejoin:round;"/>
                    <path d="M944.882,1712.6L885.827,1712.6" style="fill:none;stroke:white;stroke-width:7.77px;stroke-linecap:round;stroke-linejoin:round;"/>
                    <path d="M1122.05,1771.65L1062.99,1771.65" style="fill:none;stroke:white;stroke-width:7.77px;stroke-linecap:round;stroke-linejoin:round;"/>
                    <path d="M1062.99,1771.65L1062.99,1830.71L1003.94,1830.71" style="fill:none;stroke:white;stroke-width:7.77px;stroke-linecap:round;stroke-linejoin:round;"/>
                    <path d="M1003.94,1830.71L1003.94,2007.87" style="fill:none;stroke:white;stroke-width:7.77px;stroke-linecap:round;stroke-linejoin:round;"/>
                    <path d="M1062.99,1653.54L1062.99,1594.49L944.882,1594.49L944.882,1535.43L826.772,1535.43" style="fill:none;stroke:white;stroke-width:7.77px;stroke-linecap:round;stroke-linejoin:round;"/>
                    <path d="M826.772,1653.54L767.717,1653.54L767.717,1712.6" style="fill:none;stroke:white;stroke-width:7.77px;stroke-linecap:round;stroke-linejoin:round;"/>
                    <path d="M826.772,1771.65L767.717,1771.65" style="fill:none;stroke:white;stroke-width:7.77px;stroke-linecap:round;stroke-linejoin:round;"/>
                    <path d="M826.772,1889.76L767.717,1889.76L767.717,2007.87L708.661,2007.87" style="fill:none;stroke:white;stroke-width:7.77px;stroke-linecap:round;stroke-linejoin:round;"/>
                    <path d="M1003.94,2066.93L1003.94,2007.87" style="fill:none;stroke:white;stroke-width:7.77px;stroke-linecap:round;stroke-linejoin:round;"/>
                    <path d="M944.882,2007.87L1003.94,2007.87" style="fill:none;stroke:white;stroke-width:7.77px;stroke-linecap:round;stroke-linejoin:round;"/>
                    <path d="M944.882,2007.87L944.882,2125.98" style="fill:none;stroke:white;stroke-width:7.77px;stroke-linecap:round;stroke-linejoin:round;"/>
                    <path d="M885.827,2125.98L944.882,2125.98" style="fill:none;stroke:white;stroke-width:7.77px;stroke-linecap:round;stroke-linejoin:round;"/>
                    <path d="M1181.1,2185.04L1122.05,2185.04L1122.05,2244.09L1062.99,2244.09" style="fill:none;stroke:white;stroke-width:7.77px;stroke-linecap:round;"/>
                    <path d="M1181.1,2185.04L1181.1,2362.2L1240.16,2362.2" style="fill:none;stroke:white;stroke-width:7.77px;stroke-linecap:round;stroke-linejoin:round;"/>
                    <path d="M1122.05,1535.43L1181.1,1535.43L1181.1,1417.32" style="fill:none;stroke:white;stroke-width:7.77px;stroke-linecap:round;stroke-linejoin:round;"/>
                    <path d="M1666.05,1912.42L1476.38,1594.49" style="fill:none;stroke:white;stroke-width:7.77px;stroke-linecap:round;stroke-linejoin:round;"/>
                    <g transform="matrix(1,0,0,1,-59.0551,4.44089e-16)">
                        <path d="M1588.39,1791.33L1476.38,1594.49" style="fill:none;stroke:white;stroke-width:7.77px;stroke-linecap:round;stroke-linejoin:round;"/>
                    </g>
                    <g transform="matrix(1,0,0,1,-60.2921,238.331)">
                        <path d="M1494.09,1624.02L1426.99,1507.74" style="fill:none;stroke:white;stroke-width:7.77px;stroke-linecap:round;stroke-linejoin:round;"/>
                    </g>
                    <g transform="matrix(1,0,0,1,-236.22,59.0551)">
                        <path d="M1668.74,1920.42L1471.28,1576.5" style="fill:none;stroke:white;stroke-width:7.77px;stroke-linecap:round;stroke-linejoin:round;"/>
                    </g>
                    <g transform="matrix(6.12323e-17,-1,1,6.12323e-17,-144.244,3446.32)">
                        <path d="M1496.37,1627.87L1466.83,1578.58" style="fill:none;stroke:white;stroke-width:7.77px;stroke-linecap:round;stroke-linejoin:round;"/>
                    </g>
                    <g transform="matrix(1.44499e-16,-1,1,1.44499e-16,28.4111,3414.69)">
                        <path d="M1502.27,1637.63L1466.83,1578.58" style="fill:none;stroke:white;stroke-width:7.77px;stroke-linecap:round;stroke-linejoin:round;"/>
                    </g>
                    <g transform="matrix(3.38982e-18,-0.834868,0.857053,7.56647e-17,-40.6039,2998.43)">
                        <path d="M1499.63,1641.04L1465.14,1582" style="fill:none;stroke:white;stroke-width:9.18px;stroke-linecap:round;stroke-linejoin:round;"/>
                    </g>
                    <g transform="matrix(6.12323e-17,-1,1,6.12323e-17,-165.236,3526.68)">
                        <path d="M1502.27,1637.63L1466.83,1578.58" style="fill:none;stroke:white;stroke-width:7.77px;stroke-linecap:round;stroke-linejoin:round;"/>
                    </g>
                    <g transform="matrix(6.12323e-17,-1,1,6.12323e-17,-178.84,3737.42)">
                        <path d="M1502.27,1637.63L1466.83,1578.58" style="fill:none;stroke:white;stroke-width:7.77px;stroke-linecap:round;stroke-linejoin:round;"/>
                    </g>
                    <g transform="matrix(1,0,0,1,-236.22,177.165)">
                        <path d="M1649.56,1882.68L1480.1,1593.83" style="fill:none;stroke:white;stroke-width:7.77px;stroke-linecap:round;stroke-linejoin:round;"/>
                    </g>
                    <g transform="matrix(1,0,0,1,-236.22,295.276)">
                        <path d="M1635.27,1859.3L1480.6,1594.29" style="fill:none;stroke:white;stroke-width:7.77px;stroke-linecap:round;stroke-linejoin:round;"/>
                    </g>
                    <g transform="matrix(1,0,0,1,-236.22,413.386)">
                        <path d="M1635.96,1857.2L1482.69,1596.13" style="fill:none;stroke:white;stroke-width:7.77px;stroke-linecap:round;stroke-linejoin:round;"/>
                    </g>
                    <g transform="matrix(1,0,0,1,-289.554,427.454)">
                        <path d="M1636.68,1872.6L1476.38,1594.49" style="fill:none;stroke:white;stroke-width:7.77px;stroke-linecap:round;stroke-linejoin:round;"/>
                    </g>
                    <path d="M1243.88,1771L1181.1,1771.65" style="fill:none;stroke:white;stroke-width:7.77px;stroke-linecap:round;stroke-linejoin:round;"/>
                    <path d="M1244.38,1889.57L1181.1,1889.76" style="fill:none;stroke:white;stroke-width:7.77px;stroke-linecap:round;stroke-linejoin:round;"/>
                    <path d="M1246.47,2009.52L1181.1,2007.87" style="fill:none;stroke:white;stroke-width:7.77px;stroke-linecap:round;stroke-linejoin:round;"/>
                    <g transform="matrix(1,0,0,1,9.47076,0.723113)">
                        <path d="M1230.61,1637.63L1230.61,1535.43L1299.21,1535.43" style="fill:none;stroke:white;stroke-width:7.77px;stroke-linecap:round;stroke-linejoin:round;"/>
                    </g>
                </g>
                <g id="main_paths" transform="matrix(3.08093,0,0,3.08093,-57288.7,782.656)">
                    <g transform="matrix(0.336077,0.0592595,-0.0592595,0.336077,18720.3,-322.577)">
                        <path d="M826.772,1653.54L1181.1,1653.54" style="fill:none;stroke:white;stroke-width:16.83px;stroke-linecap:round;stroke-linejoin:round;"/>
                    </g>
                    <g transform="matrix(0.336077,0.0592595,-0.0592595,0.336077,18720.3,-322.577)">
                        <path d="M1122.05,1653.54L1122.05,1889.76" style="fill:none;stroke:white;stroke-width:16.83px;stroke-linecap:round;stroke-linejoin:round;"/>
                    </g>
                    <g transform="matrix(0.336077,0.0592595,-0.0592595,0.336077,18720.3,-322.577)">
                        <path d="M1122.05,1653.54L1122.05,1476.38" style="fill:none;stroke:white;stroke-width:16.83px;stroke-linecap:round;stroke-linejoin:round;"/>
                    </g>
                    <g transform="matrix(0.336077,0.0592595,-0.0592595,0.336077,18720.3,-322.577)">
                        <path d="M1003.94,1712.6L944.882,1712.6" style="fill:none;stroke:white;stroke-width:16.83px;stroke-linecap:round;stroke-linejoin:round;"/>
                    </g>
                    <g transform="matrix(0.336077,0.0592595,-0.066667,0.378087,18732.5,-392.042)">
                        <path d="M1181.1,1653.54L1181.1,2125.98" style="fill:none;stroke:white;stroke-width:15.82px;stroke-linecap:round;stroke-linejoin:bevel;"/>
                    </g>
                    <g transform="matrix(0.336077,0.0592595,-0.0592595,0.336077,18720.3,-322.577)">
                        <path d="M1003.94,1712.6L1122.05,1712.6" style="fill:none;stroke:white;stroke-width:16.83px;stroke-linecap:round;stroke-linejoin:round;"/>
                    </g>
                    <g transform="matrix(0.336077,0.0592595,-0.0592595,0.336077,18720.3,-322.577)">
                        <path d="M1181.1,1653.54L1358.27,1594.49L1535.43,1594.49L1641.73,1771.65" style="fill:none;stroke:white;stroke-width:16.83px;stroke-linecap:round;stroke-linejoin:round;"/>
                    </g>
                    <g transform="matrix(0.336077,0.0592595,-0.0592595,0.336077,18720.3,-322.577)">
                        <path d="M944.882,1712.6L944.882,1889.76" style="fill:none;stroke:white;stroke-width:16.83px;stroke-linecap:round;stroke-linejoin:round;"/>
                    </g>
                </g>
                <g id="Origin" transform="matrix(2.97705,-1.91125e-16,1.91125e-16,2.97705,-1051.94,-2820.01)">
                    <circle cx="772.251" cy="1520.19" r="15.244" style="fill:rgb(0,107,139);"/>
                    <path d="M772.251,1504.94C780.665,1504.94 787.495,1511.78 787.495,1520.19C787.495,1528.6 780.665,1535.43 772.251,1535.43C763.838,1535.43 757.007,1528.6 757.007,1520.19C757.007,1511.78 763.838,1504.94 772.251,1504.94ZM772.251,1510.43C777.636,1510.43 782.008,1514.8 782.008,1520.19C782.008,1525.57 777.636,1529.94 772.251,1529.94C766.867,1529.94 762.495,1525.57 762.495,1520.19C762.495,1514.8 766.867,1510.43 772.251,1510.43Z" style="fill:white;"/>
                </g>
                <g id="Destinations" transform="matrix(1.17043,0,0,1.17043,-102.64,-325.046)">
                    <g transform="matrix(1,0,0,1,473.185,15.2443)">
                        <circle cx="772.251" cy="1520.19" r="15.244" style="fill:rgb(0,107,139);stroke:white;stroke-width:8.72px;stroke-linecap:round;stroke-linejoin:round;"/>
                    </g>
                    <g transform="matrix(1,0,0,1,409.354,59.0551)">
                        <circle cx="772.251" cy="1520.19" r="15.244" style="fill:rgb(0,107,139);stroke:white;stroke-width:8.72px;stroke-linecap:round;stroke-linejoin:round;"/>
                    </g>
                    <g transform="matrix(1,0,0,1,138.178,64.4065)">
                        <circle cx="772.251" cy="1520.19" r="15.244" style="fill:rgb(0,107,139);stroke:white;stroke-width:8.72px;stroke-linecap:round;stroke-linejoin:round;"/>
                    </g>
                    <g transform="matrix(1,0,0,1,58.2755,208.798)">
                        <circle cx="772.251" cy="1520.19" r="15.244" style="fill:rgb(0,107,139);stroke:white;stroke-width:8.72px;stroke-linecap:round;stroke-linejoin:round;"/>
                    </g>
                    <g transform="matrix(1,0,0,1,159.358,230.065)">
                        <circle cx="772.251" cy="1520.19" r="15.244" style="fill:rgb(0,107,139);stroke:white;stroke-width:8.72px;stroke-linecap:round;stroke-linejoin:round;"/>
                    </g>
                    <g transform="matrix(1,0,0,1,45.0312,261.174)">
                        <circle cx="772.251" cy="1520.19" r="15.244" style="fill:rgb(0,107,139);stroke:white;stroke-width:8.72px;stroke-linecap:round;stroke-linejoin:round;"/>
                    </g>
                    <g transform="matrix(1,0,0,1,-48.3455,461.182)">
                        <circle cx="772.251" cy="1520.19" r="15.244" style="fill:rgb(0,107,139);stroke:white;stroke-width:8.72px;stroke-linecap:round;stroke-linejoin:round;"/>
                    </g>
                    <g transform="matrix(1,0,0,1,6.15003,525.364)">
                        <circle cx="772.251" cy="1520.19" r="15.244" style="fill:rgb(0,107,139);stroke:white;stroke-width:8.72px;stroke-linecap:round;stroke-linejoin:round;"/>
                    </g>
                    <g transform="matrix(1,0,0,1,96.7453,594.405)">
                        <circle cx="772.251" cy="1520.19" r="15.244" style="fill:rgb(0,107,139);stroke:white;stroke-width:8.72px;stroke-linecap:round;stroke-linejoin:round;"/>
                    </g>
                    <g transform="matrix(1,0,0,1,213.364,563.917)">
                        <circle cx="772.251" cy="1520.19" r="15.244" style="fill:rgb(0,107,139);stroke:white;stroke-width:8.72px;stroke-linecap:round;stroke-linejoin:round;"/>
                    </g>
                    <g transform="matrix(1,0,0,1,254.943,615.901)">
                        <circle cx="772.251" cy="1520.19" r="15.244" style="fill:rgb(0,107,139);stroke:white;stroke-width:8.72px;stroke-linecap:round;stroke-linejoin:round;"/>
                    </g>
                    <g transform="matrix(1,0,0,1,231.776,723.906)">
                        <circle cx="772.251" cy="1520.19" r="15.244" style="fill:rgb(0,107,139);stroke:white;stroke-width:8.72px;stroke-linecap:round;stroke-linejoin:round;"/>
                    </g>
                    <g transform="matrix(1,0,0,1,365.571,857.26)">
                        <circle cx="772.251" cy="1520.19" r="15.244" style="fill:rgb(0,107,139);stroke:white;stroke-width:8.72px;stroke-linecap:round;stroke-linejoin:round;"/>
                    </g>
                    <g transform="matrix(1,0,0,1,479.257,821.991)">
                        <circle cx="772.251" cy="1520.19" r="15.244" style="fill:rgb(0,107,139);stroke:white;stroke-width:8.72px;stroke-linecap:round;stroke-linejoin:round;"/>
                    </g>
                    <g transform="matrix(1,0,0,1,578.497,785.999)">
                        <circle cx="772.251" cy="1520.19" r="15.244" style="fill:rgb(0,107,139);stroke:white;stroke-width:8.72px;stroke-linecap:round;stroke-linejoin:round;"/>
                    </g>
                    <g transform="matrix(1,0,0,1,546.921,701.471)">
                        <circle cx="772.251" cy="1520.19" r="15.244" style="fill:rgb(0,107,139);stroke:white;stroke-width:8.72px;stroke-linecap:round;stroke-linejoin:round;"/>
                    </g>
                    <g transform="matrix(1,0,0,1,621.813,599.283)">
                        <circle cx="772.251" cy="1520.19" r="15.244" style="fill:rgb(0,107,139);stroke:white;stroke-width:8.72px;stroke-linecap:round;stroke-linejoin:round;"/>
                    </g>
                    <g transform="matrix(1,0,0,1,654.63,533.56)">
                        <circle cx="772.251" cy="1520.19" r="15.244" style="fill:rgb(0,107,139);stroke:white;stroke-width:8.72px;stroke-linecap:round;stroke-linejoin:round;"/>
                    </g>
                    <g transform="matrix(1,0,0,1,620.057,437.58)">
                        <circle cx="772.251" cy="1520.19" r="15.244" style="fill:rgb(0,107,139);stroke:white;stroke-width:8.72px;stroke-linecap:round;stroke-linejoin:round;"/>
                    </g>
                    <g transform="matrix(1,0,0,1,771.971,548.183)">
                        <circle cx="772.251" cy="1520.19" r="15.244" style="fill:rgb(0,107,139);stroke:white;stroke-width:8.72px;stroke-linecap:round;stroke-linejoin:round;"/>
                    </g>
                    <g transform="matrix(1,0,0,1,719.804,400.368)">
                        <circle cx="772.251" cy="1520.19" r="15.244" style="fill:rgb(0,107,139);stroke:white;stroke-width:8.72px;stroke-linecap:round;stroke-linejoin:round;"/>
                    </g>
                    <g transform="matrix(1,0,0,1,822.237,399.709)">
                        <circle cx="772.251" cy="1520.19" r="15.244" style="fill:rgb(0,107,139);stroke:white;stroke-width:8.72px;stroke-linecap:round;stroke-linejoin:round;"/>
                    </g>
                    <g transform="matrix(1,0,0,1,554.271,141.578)">
                        <circle cx="772.251" cy="1520.19" r="15.244" style="fill:rgb(0,107,139);stroke:white;stroke-width:8.72px;stroke-linecap:round;stroke-linejoin:round;"/>
                    </g>
                </g>
                <g id="Fast" transform="matrix(1.38034,0,0,1.38034,407.965,-1244.86)">
                    <g transform="matrix(0.608297,0,0,0.608297,-4370.47,1413.21)">
                        <path d="M8054.93,498.841L8081.3,399.808L8188.41,399.808L8183.29,432.236L8108.08,432.236L8095.16,474.621C8103.14,469.597 8112.56,467.086 8123.42,467.086C8140.19,467.086 8153.18,473.029 8162.37,484.914C8171.57,496.8 8175.45,512.476 8174.01,531.942C8172.93,544.859 8169.14,556.476 8162.64,566.792C8156.14,577.108 8147.59,585.047 8137.01,590.608C8126.42,596.17 8114.76,598.816 8102.02,598.547C8090.99,598.457 8080.96,595.923 8071.95,590.945C8062.93,585.966 8055.91,579.104 8050.89,570.358C8045.87,561.611 8043.31,551.856 8043.22,541.092L8080.49,541.092C8080.85,549.075 8083.05,555.332 8087.09,559.862C8091.12,564.392 8096.6,566.747 8103.5,566.926C8112.47,567.195 8119.85,563.921 8125.64,557.104C8131.42,550.286 8134.9,541.136 8136.07,529.654C8137.14,519.428 8135.59,511.355 8131.42,505.434C8127.25,499.514 8120.9,496.464 8112.38,496.284C8102.87,496.105 8094.08,499.603 8086.01,506.78L8054.93,498.841Z" style="fill:white;fill-rule:nonzero;stroke:white;stroke-width:5.68px;stroke-linecap:butt;stroke-miterlimit:2;"/>
                    </g>
                    <g transform="matrix(1.05786,0,0,1.05786,-8169.35,1250.75)">
                        <path d="M8120.99,524.003L8088.97,524.003L8076.46,595.721L8037.03,595.721L8071.07,399.808L8135.93,399.942C8157.64,399.942 8174.35,405.055 8186.05,415.281C8197.76,425.508 8202.94,439.726 8201.59,457.936C8199.71,484.847 8185.36,503.55 8158.54,514.046L8186.12,593.568L8186.12,595.721L8144.14,595.721L8120.99,524.003ZM8094.62,491.306L8123.95,491.575C8134.36,491.395 8142.95,488.592 8149.72,483.165C8156.49,477.738 8160.55,470.36 8161.9,461.031C8163.15,452.329 8161.77,445.512 8157.73,440.578C8153.69,435.644 8147.28,432.998 8138.49,432.639L8104.85,432.505L8094.62,491.306Z" style="fill:white;fill-rule:nonzero;stroke:white;stroke-width:3.26px;stroke-linecap:butt;stroke-miterlimit:2;"/>
                    </g>
                    <g transform="matrix(1.05786,0,0,1.05786,-7901.67,1250.75)">
                        <path d="M8174.62,523.221C8172.74,538.494 8168.74,552.059 8162.63,563.918C8156.52,575.777 8148.93,584.581 8139.86,590.331C8130.78,596.081 8120.72,598.821 8109.67,598.551C8095.57,598.192 8084.43,592.936 8076.25,582.785L8062.91,651.781L8024.91,651.781L8059.81,449.912L8094.85,449.777L8092.29,464.466C8102.8,452.607 8115.2,446.858 8129.48,447.217C8143.77,447.576 8154.86,452.764 8162.77,462.782C8170.67,472.799 8174.89,486.387 8175.43,503.546C8175.61,509.116 8175.34,515.674 8174.62,523.221ZM8136.89,520.391L8137.7,507.454C8137.88,498.74 8136.29,491.822 8132.92,486.701C8129.55,481.58 8124.63,478.93 8118.16,478.751C8107.11,478.391 8097.99,483.063 8090.8,492.765L8079.89,552.868C8083.21,561.942 8090.36,566.658 8101.32,567.018C8110.48,567.287 8118.12,563.739 8124.23,556.372C8130.33,549.005 8134.56,537.011 8136.89,520.391Z" style="fill:white;fill-rule:nonzero;stroke:white;stroke-width:3.26px;stroke-linecap:butt;stroke-miterlimit:2;"/>
                        <path d="M8246.99,540.201L8288.63,449.912L8330.94,449.912L8245.64,617.687C8239.53,630.534 8232.37,639.967 8224.15,645.987C8215.93,652.006 8206.43,655.015 8195.65,655.015C8191.43,655.015 8185.32,654.072 8177.32,652.185L8180.15,622.538L8185.4,622.808C8197.8,623.167 8206.88,618.63 8212.63,609.197L8220.98,593.7L8197.13,449.912L8236.48,449.912L8246.99,540.201Z" style="fill:white;fill-rule:nonzero;stroke:white;stroke-width:3.26px;stroke-linecap:butt;stroke-miterlimit:2;"/>
                    </g>
                </g>
                <g id="Text">
                </g>
            </g>
        </g>
    </g>
</svg>
